<svg xmlns="http://www.w3.org/2000/svg" width="1200" height="520" viewBox="0 0 1200 520">
  <rect width="1200" height="520" fill="#ffffff"/>
  <style>
    .box { fill:#f7f8fa; stroke:#1f2937; stroke-width:2; rx:10; }
    .loss { fill:#fff7ed; stroke:#9a3412; stroke-width:2; rx:10; }
    .note { fill:#eef6ff; stroke:#1d4ed8; stroke-width:2; rx:10; }
    .txt { font-family:Arial, Helvetica, sans-serif; font-size:22px; fill:#111827; }
    .small { font-family:Arial, Helvetica, sans-serif; font-size:17px; fill:#374151; }
    .tiny { font-family:Arial, Helvetica, sans-serif; font-size:15px; fill:#4b5563; }
    .arrow { stroke:#111827; stroke-width:3; fill:none; marker-end:url(#arrowhead); }
    .dash { stroke:#9a3412; stroke-width:2.5; fill:none; stroke-dasharray:8 7; marker-end:url(#arrowhead_orange); }
  </style>
  <defs>
    <marker id="arrowhead" markerWidth="10" markerHeight="8" refX="9" refY="4" orient="auto">
      <path d="M0,0 L10,4 L0,8 Z" fill="#111827"/>
    </marker>
    <marker id="arrowhead_orange" markerWidth="10" markerHeight="8" refX="9" refY="4" orient="auto">
      <path d="M0,0 L10,4 L0,8 Z" fill="#9a3412"/>
    </marker>
  </defs>

  <text x="42" y="45" class="txt" font-weight="700">Synthetic warp-supervised RGB-to-thermal translation</text>
  <text x="42" y="74" class="small">Primary Week 7 method: ConvNeXt U-Net + RGB-only affine head + uncertainty-decoupled reconstruction</text>

  <rect x="42" y="128" width="160" height="86" class="box"/>
  <text x="65" y="166" class="txt">Aligned RGB</text>
  <text x="73" y="192" class="small">x_aligned</text>

  <rect x="42" y="305" width="160" height="86" class="box"/>
  <text x="76" y="343" class="txt">Thermal</text>
  <text x="77" y="369" class="small">target y</text>

  <rect x="260" y="128" width="178" height="86" class="box"/>
  <text x="292" y="157" class="txt">Synthetic</text>
  <text x="300" y="184" class="txt">misalign</text>
  <text x="282" y="207" class="tiny">translation/rotation/scale</text>

  <rect x="494" y="128" width="170" height="86" class="box"/>
  <text x="522" y="166" class="txt">Misaligned</text>
  <text x="540" y="192" class="small">RGB x_mis</text>

  <rect x="720" y="104" width="178" height="110" class="box"/>
  <text x="748" y="139" class="txt">RGB-only</text>
  <text x="752" y="166" class="txt">affine head</text>
  <text x="759" y="192" class="small">predict theta</text>

  <rect x="720" y="255" width="178" height="100" class="box"/>
  <text x="752" y="292" class="txt">Input-space</text>
  <text x="768" y="319" class="txt">warp W</text>
  <text x="760" y="343" class="small">x_warp</text>

  <rect x="955" y="255" width="188" height="100" class="box"/>
  <text x="986" y="291" class="txt">ConvNeXt</text>
  <text x="993" y="318" class="txt">U-Net</text>
  <text x="982" y="343" class="small">predict y_hat</text>

  <rect x="955" y="392" width="188" height="70" class="note"/>
  <text x="975" y="423" class="small">Uncertainty map</text>
  <text x="974" y="447" class="tiny">diagnostic only</text>

  <rect x="494" y="392" width="404" height="74" class="loss"/>
  <text x="522" y="424" class="small">RGB warp-recovery loss: L1(x_warp, x_aligned)</text>
  <text x="522" y="449" class="tiny">Direct synthetic alignment signal; lambda_warp = 0.5</text>

  <rect x="955" y="128" width="188" height="74" class="loss"/>
  <text x="978" y="158" class="small">Thermal losses</text>
  <text x="978" y="183" class="tiny">L1 + SSIM + edge + affine reg</text>

  <path d="M202 171 L260 171" class="arrow"/>
  <path d="M438 171 L494 171" class="arrow"/>
  <path d="M664 171 L720 158" class="arrow"/>
  <path d="M809 214 L809 255" class="arrow"/>
  <path d="M664 171 C690 208 694 274 720 305" class="arrow"/>
  <path d="M898 305 L955 305" class="arrow"/>
  <path d="M1049 255 L1049 202" class="dash"/>
  <path d="M122 214 C126 276 295 391 494 429" class="dash"/>
  <path d="M809 355 L809 392" class="dash"/>
  <path d="M202 348 L955 165" class="dash"/>

  <text x="246" y="114" class="tiny">Train-time only</text>
  <text x="920" y="86" class="tiny">Primary model does not use uncertainty to weight reconstruction</text>
</svg>
